<?xml version="1.0" encoding="UTF-8" standalone="no"?>
<svg
   xmlns:dc="http://purl.org/dc/elements/1.1/"
   xmlns:cc="http://creativecommons.org/ns#"
   xmlns:rdf="http://www.w3.org/1999/02/22-rdf-syntax-ns#"
   xmlns:svg="http://www.w3.org/2000/svg"
   xmlns="http://www.w3.org/2000/svg"
   xmlns:sodipodi="http://sodipodi.sourceforge.net/DTD/sodipodi-0.dtd"
   xmlns:inkscape="http://www.inkscape.org/namespaces/inkscape"
   version="1.1"
   id="Layer_1"
   x="0px"
   y="0px"
   viewBox="0 0 645.45 134.81"
   style="enable-background:new 0 0 645.45 134.81;"
   xml:space="preserve"
   sodipodi:docname="white-innovation-studio-logo.svg"
   inkscape:version="1.0.2 (e86c8708, 2021-01-15)"><metadata
   id="metadata840"><rdf:RDF><cc:Work
       rdf:about=""><dc:format>image/svg+xml</dc:format><dc:type
         rdf:resource="http://purl.org/dc/dcmitype/StillImage" /><dc:title></dc:title></cc:Work></rdf:RDF></metadata><defs
   id="defs838" /><sodipodi:namedview
   pagecolor="#ffffff"
   bordercolor="#666666"
   borderopacity="1"
   objecttolerance="10"
   gridtolerance="10"
   guidetolerance="10"
   inkscape:pageopacity="0"
   inkscape:pageshadow="2"
   inkscape:window-width="1778"
   inkscape:window-height="958"
   id="namedview836"
   showgrid="false"
   inkscape:zoom="1.4504754"
   inkscape:cx="274.89197"
   inkscape:cy="67.405"
   inkscape:window-x="0"
   inkscape:window-y="25"
   inkscape:window-maximized="0"
   inkscape:current-layer="Layer_1" />
<path
   d="M323.75,103.99c-5.94-1.44-10.89-5.39-13.65-10.9c-2.03-4.05-2.7-7.44-2.4-12.24c0.29-4.78,1.34-7.67,4.74-13.02  c3.27-5.16,3.7-6.22,4.23-10.49c0.52-4.22,1.89-6.33,4.98-7.7c1.78-0.79,2.85-0.88,8.29-0.75c5.51,0.14,6.46,0.28,8.08,1.21  c2.32,1.33,3.88,3.58,3.89,5.61c0.01,3.04,1.22,6.64,3.36,10.04c5.81,9.21,7.33,15.28,5.56,22.1  c-2.74,10.51-10.79,16.85-21.28,16.75C327.65,104.58,325.04,104.3,323.75,103.99L323.75,103.99z M335.35,99.53  c5.79-2.16,9.29-5.61,10.97-10.79c2.15-6.62,1.15-11.31-4.28-20.09c-2.36-3.82-3.68-7.33-4.21-11.16c-0.25-1.85-0.66-2.96-1.25-3.41  c-1.83-1.38-1.83-1.45-0.57,10.85c0.41,4.07,0.64,4.95,1.33,5.17c1.59,0.51,3.63,3.34,3.63,5.06c0,2.9-3.08,4.82-5.21,3.26  c-0.45-0.33-1.19-1.71-1.65-3.08c-0.46-1.37-1.09-2.57-1.41-2.67c-0.36-0.12-0.46,0.08-0.29,0.53c1.18,3.09,0.56,5.59-1.66,6.66  c-2.85,1.37-5.25-1.27-4.71-5.2c0.31-2.24-0.41-2.88-0.88-0.79c-0.59,2.64-0.78,3.12-1.7,4.12c-1.74,1.91-4.69,0.83-5.55-2.03  c-0.46-1.53,0.87-4.15,2.64-5.2c0.99-0.59,1.66-1.38,1.81-2.17c0.55-2.84,1.39-14.75,1.06-15.08c-0.72-0.72-2.56,2.15-2.56,3.98  c0,2.93-1.57,7.04-4.49,11.77c-3.95,6.4-4.66,8.46-4.66,13.42c0,3.36,0.22,4.64,1.2,7.1C316.27,98.22,326.73,102.75,335.35,99.53  L335.35,99.53z M329.5,75.7c-0.04-1.8-0.07-1.85-0.43-0.65c-0.35,1.16-0.19,2.59,0.29,2.59C329.45,77.64,329.52,76.77,329.5,75.7  L329.5,75.7z M322.14,74.44c0.54-1.56,0.12-1.78-1.02-0.52c-0.43,0.48-0.64,1.18-0.48,1.6C321.03,76.51,321.56,76.13,322.14,74.44  L322.14,74.44z M338.23,75.38c0-0.95-1.1-2.77-1.68-2.77c-0.8,0-0.77,0.27,0.17,1.87C337.5,75.79,338.23,76.23,338.23,75.38  L338.23,75.38z M332.97,69.28c0.1-0.17-1.21-14.24-1.42-15.31c-0.17-0.88-0.49-1.03-2.25-1.03c-1.82,0-2.05,0.12-2.06,1.03  c0,0.57-0.31,3.91-0.67,7.44c-0.85,8.24-0.87,7.9,0.34,8.17C327.82,69.77,332.84,69.53,332.97,69.28L332.97,69.28z M150.72,102.75  c-12.09-2.01-18.6-15.55-13.1-27.19c1.77-3.74,6.22-7.6,10.25-8.9c10.16-3.27,20.74,1.15,24.26,10.12c0.97,2.47,1.14,3.65,1.12,7.72  c-0.02,5.93-1.05,8.91-4.32,12.49c-2.71,2.96-5.85,4.73-9.95,5.6C155.55,103.32,154.28,103.35,150.72,102.75L150.72,102.75z   M160.59,94.64c4.78-3.07,6.64-10.37,4.05-15.85c-4.03-8.53-15.49-8.84-19.84-0.54c-1.05,2.01-1.24,2.94-1.24,6.03  c0,5.09,1.74,8.38,5.72,10.85c1.71,1.06,2.63,1.23,5.96,1.12C157.76,96.17,158.61,95.91,160.59,94.64L160.59,94.64z M426.31,102.78  c-2.89-0.45-7.32-2.41-9.57-4.24l-1.34-1.08l1.98-2.82c1.09-1.55,2.05-2.82,2.14-2.82c0.09,0,1.17,0.73,2.41,1.61  c2.97,2.13,6.35,3.11,9.98,2.87c3.81-0.24,5.4-1.37,5.4-3.82c0-1.5-0.22-1.88-1.51-2.64c-0.83-0.49-3.47-1.37-5.86-1.96  c-6.07-1.5-9.96-3.44-11.46-5.7c-1.54-2.33-2.04-5.09-1.44-7.95c0.69-3.24,4.25-6.76,7.91-7.82c5.64-1.64,12.73-0.58,17.65,2.64  l2.17,1.42l-2.13,2.83l-2.13,2.83l-1.42-1.08c-3.53-2.69-10.08-3.71-12.88-2c-1.26,0.77-1.49,1.17-1.49,2.66  c0,1.55,0.18,1.84,1.59,2.51c0.87,0.42,3.26,1.18,5.29,1.7c7.82,2,11.67,4.24,13.09,7.64c0.75,1.79,0.8,5.84,0.1,7.95  c-0.78,2.34-3.89,5.32-6.63,6.34C435.26,102.95,430.02,103.36,426.31,102.78L426.31,102.78z M499.86,102.79  c-3.24-0.58-6.08-1.98-8.14-4.01c-3.61-3.56-4.31-7.15-4.32-22.16l-0.01-10.41h8.24l0.01,12.24c0.01,11.82,0.04,12.3,1.03,14.07  c2.9,5.18,11.9,5.15,14.85-0.03c0.99-1.74,1.02-2.22,1.03-14.04l0.01-12.24h8.33l-0.21,12.47c-0.25,14.99-0.49,16.07-4.45,20.04  c-1.92,1.92-3.15,2.73-5.05,3.31C508.01,103,502.97,103.34,499.86,102.79L499.86,102.79z M603.26,102.6  c-3.96-0.89-7.15-2.76-9.78-5.7c-7.4-8.3-5.59-22.47,3.62-28.32c4.72-3,11.74-3.75,17.57-1.88c3.97,1.28,8.68,5.37,10.23,8.89  c3.01,6.8,2.38,14.77-1.58,20.24C619.3,101.37,610.7,104.27,603.26,102.6L603.26,102.6z M613.97,94.51c1.41-1,2.71-2.49,3.59-4.07  c1.21-2.2,1.37-2.92,1.35-6.16c-0.02-3.06-0.23-4.06-1.27-6.07c-3.01-5.84-10.33-7.78-15.87-4.22c-4.88,3.13-6.51,10.34-3.68,16.32  c1,2.11,1.82,3.14,3.24,4.03c2.98,1.88,3.67,2.06,7.16,1.9C611.36,96.11,612.03,95.89,613.97,94.51L613.97,94.51z M33.96,84.51V66.2  h7.78v36.6h-7.78V84.51z M51.8,84.51V66.2h8.06l8.21,11.13l8.21,11.12l0.12-11.12l0.12-11.13h7.76v36.6H77.1l-8.64-11.83  l-8.65-11.83l-0.12,11.83l-0.12,11.83H51.8V84.51z M94.35,84.49V66.17l4.23,0.13l4.23,0.13l8.24,11.17l8.24,11.17l0.12-11.28  l0.12-11.28h7.76v36.6l-3.77-0.02l-3.78-0.02l-8.69-11.98l-8.69-11.98l-0.24,23.99h-7.76V84.49z M190.69,101.32  c-0.34-0.82-3.44-8.8-6.89-17.73c-3.45-8.93-6.38-16.51-6.51-16.83c-0.18-0.46,0.74-0.56,4.26-0.46l4.48,0.13l4.84,13.35  c2.66,7.34,4.95,13.47,5.1,13.61c0.15,0.15,1.97-4.53,4.06-10.37c2.09-5.85,4.31-12.03,4.94-13.73l1.13-3.09h4.29  c2.36,0,4.29,0.16,4.29,0.37c0,0.2-3.09,8.36-6.86,18.13c-3.77,9.77-6.86,17.84-6.86,17.94c0,0.09-2.17,0.17-4.83,0.17h-4.83  L190.69,101.32z M214.69,102.69c0-0.06,3.16-8.25,7.01-18.19l7.01-18.07l5.02-0.13l5.02-0.13l6.71,17.52  c3.69,9.63,6.85,17.88,7.01,18.33c0.28,0.76-0.04,0.81-4.16,0.69l-4.46-0.13l-2.28-6.18h-15.77l-1.09,3.2l-1.09,3.2h-4.47  C216.7,102.81,214.69,102.76,214.69,102.69L214.69,102.69z M239.4,89.39c0-0.08-1.23-3.52-2.75-7.63c-1.51-4.12-2.76-7.6-2.78-7.75  c-0.03-0.25-1.18,2.79-4.47,11.75l-1.38,3.78h5.69C236.84,89.54,239.4,89.47,239.4,89.39L239.4,89.39z M263.65,87.94V73.07h-10.52  V66.2h29.28v6.86h-10.52v29.74h-8.24V87.94z M290.19,84.51V66.2h7.78v36.6h-7.78V84.51z M358.36,84.51V66.2h8.13l8.29,11.26  l8.29,11.26V66.2h7.78v36.6h-7.14l-8.67-11.84l-8.67-11.84l-0.24,23.69h-7.76V84.51z M461.31,87.94V73.07h-10.52V66.2h28.83v6.86  h-10.52v29.74h-7.78V87.94z M530.4,84.57V66.2h8.83c12.2,0,15.36,0.87,20.06,5.48c3.6,3.53,4.69,6.48,4.69,12.59  c0,6.11-1.1,9.06-4.69,12.6c-4.69,4.61-7.51,5.43-19.85,5.79l-9.04,0.27V84.57z M549.9,94.9c6.12-3.21,8.25-9.82,5.24-16.2  c-1.14-2.4-1.71-3.05-3.78-4.23c-2.34-1.34-2.66-1.4-7.81-1.4l-5.38,0v22.99l5.15-0.2C546.87,95.71,548.91,95.42,549.9,94.9  L549.9,94.9z M572.49,84.51V66.2h7.78v36.6h-7.78V84.51z M145.14,37.61V27.31h-3.66c-2.95,0-3.66-0.13-3.66-0.69  c0-0.58,1.22-0.69,8.24-0.69c7.02,0,8.24,0.1,8.24,0.69c0,0.55-0.71,0.69-3.66,0.69h-3.66v10.29c0,9.99-0.03,10.29-0.92,10.29  C145.17,47.9,145.14,47.6,145.14,37.61L145.14,37.61z M166.65,36.92c0-10.68,0.03-10.98,0.92-10.98c0.86,0,0.92,0.31,0.92,4.8v4.8  h13.73v-4.8c0-4.5,0.06-4.8,0.92-4.8c0.89,0,0.92,0.31,0.92,10.98s-0.03,10.98-0.92,10.98c-0.86,0-0.92-0.31-0.92-5.26v-5.26h-13.73  v5.26c0,4.96-0.05,5.26-0.92,5.26C166.67,47.9,166.65,47.6,166.65,36.92L166.65,36.92z M197.76,36.92V25.94h7.09  c6,0,7.09,0.1,7.09,0.69c0,0.58-0.99,0.69-6.18,0.69h-6.18v8.24h5.95c5.64,0,5.95,0.05,5.95,0.92c0,0.87-0.31,0.92-5.95,0.92h-5.95  v8.69h6.18c5.87,0,6.18,0.05,6.18,0.92c0,0.87-0.31,0.92-7.09,0.92h-7.09V36.92z M327.82,46.07c-6.34-0.91-8.35-1.57-8.35-2.75  c0-1.9,0.99-2.04,8.89-1.22c4.1,0.42,8.11,1,8.9,1.28c1.88,0.66,2.59,1.92,1.62,2.89C337.97,47.18,335.21,47.13,327.82,46.07  L327.82,46.07z M328.39,40.73c-7.58-1.06-9.98-2.21-8.45-4.06c0.56-0.67,1.23-0.74,4.78-0.51c8.9,0.57,14.29,1.79,14.76,3.34  c0.09,0.28-0.17,0.85-0.58,1.26C338,41.66,334.97,41.65,328.39,40.73L328.39,40.73z M323.61,34.2c-1.16-1.16-1.16-1.26-0.01-3.14  c2.24-3.67,8.59-3.82,11.39-0.26c1.22,1.55,1.23,3.2,0.02,3.85c-1.2,0.64-2.69,0.16-3.78-1.22c-1.08-1.37-2.03-1.37-3.51,0.01  C325.98,35.07,324.72,35.31,323.61,34.2L323.61,34.2z M323.61,34.2"
   id="path833"
   style="fill:#ffffff" />
</svg>
